<mxfile host="app.diagrams.net" modified="2022-05-23T12:57:13.062Z" agent="5.0 (Windows NT 10.0; Win64; x64) AppleWebKit/537.36 (KHTML, like Gecko) Chrome/101.0.4951.67 Safari/537.36" etag="d0WTCR2-iKTJnh6gJGQY" version="18.1.1" type="github">
  <diagram id="C5RBs43oDa-KdzZeNtuy" name="Page-1">
    <mxGraphModel dx="1038" dy="532" grid="0" gridSize="10" guides="1" tooltips="1" connect="1" arrows="1" fold="1" page="0" pageScale="1" pageWidth="827" pageHeight="1169" math="0" shadow="0">
      <root>
        <mxCell id="WIyWlLk6GJQsqaUBKTNV-0" />
        <mxCell id="WIyWlLk6GJQsqaUBKTNV-1" parent="WIyWlLk6GJQsqaUBKTNV-0" />
        <mxCell id="GqAvmgkqh1xOm4bAF4C7-27" style="edgeStyle=orthogonalEdgeStyle;rounded=0;orthogonalLoop=1;jettySize=auto;html=1;exitX=0.5;exitY=1;exitDx=0;exitDy=0;entryX=0.5;entryY=0;entryDx=0;entryDy=0;" edge="1" parent="WIyWlLk6GJQsqaUBKTNV-1" source="GqAvmgkqh1xOm4bAF4C7-20" target="GqAvmgkqh1xOm4bAF4C7-21">
          <mxGeometry relative="1" as="geometry" />
        </mxCell>
        <mxCell id="GqAvmgkqh1xOm4bAF4C7-20" value="第一章" style="rounded=1;whiteSpace=wrap;html=1;" vertex="1" parent="WIyWlLk6GJQsqaUBKTNV-1">
          <mxGeometry x="280" y="80" width="120" height="20" as="geometry" />
        </mxCell>
        <mxCell id="GqAvmgkqh1xOm4bAF4C7-28" style="edgeStyle=orthogonalEdgeStyle;rounded=0;orthogonalLoop=1;jettySize=auto;html=1;exitX=0.5;exitY=1;exitDx=0;exitDy=0;entryX=0.5;entryY=0;entryDx=0;entryDy=0;" edge="1" parent="WIyWlLk6GJQsqaUBKTNV-1" source="GqAvmgkqh1xOm4bAF4C7-21" target="GqAvmgkqh1xOm4bAF4C7-22">
          <mxGeometry relative="1" as="geometry" />
        </mxCell>
        <mxCell id="GqAvmgkqh1xOm4bAF4C7-21" value="班级聚会提示" style="rounded=0;whiteSpace=wrap;html=1;" vertex="1" parent="WIyWlLk6GJQsqaUBKTNV-1">
          <mxGeometry x="280" y="120" width="120" height="20" as="geometry" />
        </mxCell>
        <mxCell id="GqAvmgkqh1xOm4bAF4C7-29" style="edgeStyle=orthogonalEdgeStyle;rounded=0;orthogonalLoop=1;jettySize=auto;html=1;exitX=0.5;exitY=1;exitDx=0;exitDy=0;entryX=0.5;entryY=0;entryDx=0;entryDy=0;" edge="1" parent="WIyWlLk6GJQsqaUBKTNV-1" source="GqAvmgkqh1xOm4bAF4C7-22" target="GqAvmgkqh1xOm4bAF4C7-23">
          <mxGeometry relative="1" as="geometry" />
        </mxCell>
        <mxCell id="GqAvmgkqh1xOm4bAF4C7-22" value="翻动日历互动" style="rounded=0;whiteSpace=wrap;html=1;" vertex="1" parent="WIyWlLk6GJQsqaUBKTNV-1">
          <mxGeometry x="280" y="160" width="120" height="20" as="geometry" />
        </mxCell>
        <mxCell id="GqAvmgkqh1xOm4bAF4C7-30" style="edgeStyle=orthogonalEdgeStyle;rounded=0;orthogonalLoop=1;jettySize=auto;html=1;exitX=0.5;exitY=1;exitDx=0;exitDy=0;entryX=0.5;entryY=0;entryDx=0;entryDy=0;" edge="1" parent="WIyWlLk6GJQsqaUBKTNV-1" source="GqAvmgkqh1xOm4bAF4C7-23" target="GqAvmgkqh1xOm4bAF4C7-24">
          <mxGeometry relative="1" as="geometry" />
        </mxCell>
        <mxCell id="GqAvmgkqh1xOm4bAF4C7-23" value="前往教室集合" style="rounded=0;whiteSpace=wrap;html=1;" vertex="1" parent="WIyWlLk6GJQsqaUBKTNV-1">
          <mxGeometry x="280" y="200" width="120" height="20" as="geometry" />
        </mxCell>
        <mxCell id="GqAvmgkqh1xOm4bAF4C7-31" style="edgeStyle=orthogonalEdgeStyle;rounded=0;orthogonalLoop=1;jettySize=auto;html=1;exitX=0.5;exitY=1;exitDx=0;exitDy=0;entryX=0.5;entryY=0;entryDx=0;entryDy=0;" edge="1" parent="WIyWlLk6GJQsqaUBKTNV-1" source="GqAvmgkqh1xOm4bAF4C7-24" target="GqAvmgkqh1xOm4bAF4C7-25">
          <mxGeometry relative="1" as="geometry" />
        </mxCell>
        <mxCell id="GqAvmgkqh1xOm4bAF4C7-24" value="同学相互交流" style="rounded=0;whiteSpace=wrap;html=1;" vertex="1" parent="WIyWlLk6GJQsqaUBKTNV-1">
          <mxGeometry x="280" y="240" width="120" height="20" as="geometry" />
        </mxCell>
        <mxCell id="GqAvmgkqh1xOm4bAF4C7-32" style="edgeStyle=orthogonalEdgeStyle;rounded=0;orthogonalLoop=1;jettySize=auto;html=1;exitX=0.5;exitY=1;exitDx=0;exitDy=0;entryX=0.5;entryY=0;entryDx=0;entryDy=0;" edge="1" parent="WIyWlLk6GJQsqaUBKTNV-1" source="GqAvmgkqh1xOm4bAF4C7-25" target="GqAvmgkqh1xOm4bAF4C7-26">
          <mxGeometry relative="1" as="geometry" />
        </mxCell>
        <mxCell id="GqAvmgkqh1xOm4bAF4C7-25" value="发生冲突" style="rounded=0;whiteSpace=wrap;html=1;" vertex="1" parent="WIyWlLk6GJQsqaUBKTNV-1">
          <mxGeometry x="280" y="280" width="120" height="20" as="geometry" />
        </mxCell>
        <mxCell id="GqAvmgkqh1xOm4bAF4C7-34" value="回应" style="edgeStyle=orthogonalEdgeStyle;rounded=0;orthogonalLoop=1;jettySize=auto;html=1;exitX=0.5;exitY=1;exitDx=0;exitDy=0;entryX=0.5;entryY=0;entryDx=0;entryDy=0;" edge="1" parent="WIyWlLk6GJQsqaUBKTNV-1" source="GqAvmgkqh1xOm4bAF4C7-26" target="GqAvmgkqh1xOm4bAF4C7-33">
          <mxGeometry relative="1" as="geometry" />
        </mxCell>
        <mxCell id="GqAvmgkqh1xOm4bAF4C7-38" value="沉默" style="edgeStyle=orthogonalEdgeStyle;rounded=0;orthogonalLoop=1;jettySize=auto;html=1;exitX=1;exitY=0.5;exitDx=0;exitDy=0;entryX=0;entryY=0.5;entryDx=0;entryDy=0;" edge="1" parent="WIyWlLk6GJQsqaUBKTNV-1" source="GqAvmgkqh1xOm4bAF4C7-26" target="GqAvmgkqh1xOm4bAF4C7-37">
          <mxGeometry relative="1" as="geometry" />
        </mxCell>
        <mxCell id="GqAvmgkqh1xOm4bAF4C7-26" value="玩家控制" style="rhombus;whiteSpace=wrap;html=1;" vertex="1" parent="WIyWlLk6GJQsqaUBKTNV-1">
          <mxGeometry x="280" y="320" width="120" height="40" as="geometry" />
        </mxCell>
        <mxCell id="GqAvmgkqh1xOm4bAF4C7-52" style="edgeStyle=orthogonalEdgeStyle;rounded=0;orthogonalLoop=1;jettySize=auto;html=1;exitX=1;exitY=0.5;exitDx=0;exitDy=0;entryX=0;entryY=0.5;entryDx=0;entryDy=0;" edge="1" parent="WIyWlLk6GJQsqaUBKTNV-1" source="GqAvmgkqh1xOm4bAF4C7-33" target="GqAvmgkqh1xOm4bAF4C7-35">
          <mxGeometry relative="1" as="geometry" />
        </mxCell>
        <mxCell id="GqAvmgkqh1xOm4bAF4C7-33" value="抑郁值降低" style="rounded=0;whiteSpace=wrap;html=1;" vertex="1" parent="WIyWlLk6GJQsqaUBKTNV-1">
          <mxGeometry x="280" y="400" width="120" height="20" as="geometry" />
        </mxCell>
        <mxCell id="GqAvmgkqh1xOm4bAF4C7-35" value="聚会愉快" style="rounded=0;whiteSpace=wrap;html=1;" vertex="1" parent="WIyWlLk6GJQsqaUBKTNV-1">
          <mxGeometry x="480" y="400" width="120" height="20" as="geometry" />
        </mxCell>
        <mxCell id="GqAvmgkqh1xOm4bAF4C7-41" style="edgeStyle=orthogonalEdgeStyle;rounded=0;orthogonalLoop=1;jettySize=auto;html=1;exitX=0.5;exitY=1;exitDx=0;exitDy=0;entryX=0.5;entryY=0;entryDx=0;entryDy=0;" edge="1" parent="WIyWlLk6GJQsqaUBKTNV-1" source="GqAvmgkqh1xOm4bAF4C7-37" target="GqAvmgkqh1xOm4bAF4C7-39">
          <mxGeometry relative="1" as="geometry" />
        </mxCell>
        <mxCell id="GqAvmgkqh1xOm4bAF4C7-37" value="抑郁值升高" style="rounded=0;whiteSpace=wrap;html=1;" vertex="1" parent="WIyWlLk6GJQsqaUBKTNV-1">
          <mxGeometry x="480" y="80" width="120" height="20" as="geometry" />
        </mxCell>
        <mxCell id="GqAvmgkqh1xOm4bAF4C7-43" style="edgeStyle=orthogonalEdgeStyle;rounded=0;orthogonalLoop=1;jettySize=auto;html=1;exitX=0.5;exitY=1;exitDx=0;exitDy=0;entryX=0.5;entryY=0;entryDx=0;entryDy=0;" edge="1" parent="WIyWlLk6GJQsqaUBKTNV-1" source="GqAvmgkqh1xOm4bAF4C7-39" target="GqAvmgkqh1xOm4bAF4C7-42">
          <mxGeometry relative="1" as="geometry" />
        </mxCell>
        <mxCell id="GqAvmgkqh1xOm4bAF4C7-39" value="第二人格自我对话" style="rounded=0;whiteSpace=wrap;html=1;" vertex="1" parent="WIyWlLk6GJQsqaUBKTNV-1">
          <mxGeometry x="480" y="120" width="120" height="20" as="geometry" />
        </mxCell>
        <mxCell id="GqAvmgkqh1xOm4bAF4C7-46" value="正确引导" style="edgeStyle=orthogonalEdgeStyle;rounded=0;orthogonalLoop=1;jettySize=auto;html=1;exitX=0.5;exitY=1;exitDx=0;exitDy=0;entryX=0.5;entryY=0;entryDx=0;entryDy=0;" edge="1" parent="WIyWlLk6GJQsqaUBKTNV-1" source="GqAvmgkqh1xOm4bAF4C7-42" target="GqAvmgkqh1xOm4bAF4C7-44">
          <mxGeometry relative="1" as="geometry" />
        </mxCell>
        <mxCell id="GqAvmgkqh1xOm4bAF4C7-47" value="错误引导" style="edgeStyle=orthogonalEdgeStyle;rounded=0;orthogonalLoop=1;jettySize=auto;html=1;exitX=1;exitY=0.5;exitDx=0;exitDy=0;entryX=1;entryY=0.5;entryDx=0;entryDy=0;" edge="1" parent="WIyWlLk6GJQsqaUBKTNV-1" source="GqAvmgkqh1xOm4bAF4C7-42" target="GqAvmgkqh1xOm4bAF4C7-45">
          <mxGeometry x="-0.2" relative="1" as="geometry">
            <mxPoint as="offset" />
          </mxGeometry>
        </mxCell>
        <mxCell id="GqAvmgkqh1xOm4bAF4C7-42" value="玩家控制" style="rhombus;whiteSpace=wrap;html=1;" vertex="1" parent="WIyWlLk6GJQsqaUBKTNV-1">
          <mxGeometry x="480" y="160" width="120" height="40" as="geometry" />
        </mxCell>
        <mxCell id="GqAvmgkqh1xOm4bAF4C7-50" style="edgeStyle=orthogonalEdgeStyle;rounded=0;orthogonalLoop=1;jettySize=auto;html=1;exitX=0;exitY=0.5;exitDx=0;exitDy=0;entryX=0;entryY=0.5;entryDx=0;entryDy=0;" edge="1" parent="WIyWlLk6GJQsqaUBKTNV-1" source="GqAvmgkqh1xOm4bAF4C7-44" target="GqAvmgkqh1xOm4bAF4C7-48">
          <mxGeometry relative="1" as="geometry" />
        </mxCell>
        <mxCell id="GqAvmgkqh1xOm4bAF4C7-44" value="抑郁值升高" style="rounded=0;whiteSpace=wrap;html=1;" vertex="1" parent="WIyWlLk6GJQsqaUBKTNV-1">
          <mxGeometry x="480" y="240" width="120" height="20" as="geometry" />
        </mxCell>
        <mxCell id="GqAvmgkqh1xOm4bAF4C7-51" style="edgeStyle=orthogonalEdgeStyle;rounded=0;orthogonalLoop=1;jettySize=auto;html=1;exitX=0.5;exitY=1;exitDx=0;exitDy=0;entryX=0.5;entryY=0;entryDx=0;entryDy=0;" edge="1" parent="WIyWlLk6GJQsqaUBKTNV-1" source="GqAvmgkqh1xOm4bAF4C7-45" target="GqAvmgkqh1xOm4bAF4C7-48">
          <mxGeometry relative="1" as="geometry" />
        </mxCell>
        <mxCell id="GqAvmgkqh1xOm4bAF4C7-45" value="抑郁值降低" style="rounded=0;whiteSpace=wrap;html=1;" vertex="1" parent="WIyWlLk6GJQsqaUBKTNV-1">
          <mxGeometry x="480" y="280" width="120" height="20" as="geometry" />
        </mxCell>
        <mxCell id="GqAvmgkqh1xOm4bAF4C7-48" value="聚会心情低落" style="rounded=0;whiteSpace=wrap;html=1;" vertex="1" parent="WIyWlLk6GJQsqaUBKTNV-1">
          <mxGeometry x="480" y="320" width="120" height="20" as="geometry" />
        </mxCell>
      </root>
    </mxGraphModel>
  </diagram>
</mxfile>
